<svg xmlns="http://www.w3.org/2000/svg" version="1.1" xmlns:xlink="http://www.w3.org/1999/xlink" xmlns:svgjs="http://svgjs.com/svgjs" width="512" height="512" x="0" y="0" viewBox="0 0 24 24" style="enable-background:new 0 0 512 512" xml:space="preserve" class=""><g><path d="M12 0C5.383 0 0 5.383 0 12s5.383 12 12 12 12-5.383 12-12S18.617 0 12 0Zm0 23C5.935 23 1 18.065 1 12S5.935 1 12 1s11 4.935 11 11-4.935 11-11 11Z" fill="#ffffff" data-original="#000000"></path><path d="m10.053 10.229 2.828-2.879a.502.502 0 0 0-.006-.708.502.502 0 0 0-.707.006L9.343 9.524c-.198.198-.474.5-.756.818a2.497 2.497 0 0 0 0 3.313c.282.317.559.62.753.814l2.828 2.879a.496.496 0 0 0 .707.005.5.5 0 0 0 .006-.707l-2.831-2.882a21.21 21.21 0 0 1-.715-.774 1.5 1.5 0 0 1 0-1.987c.267-.301.528-.587.718-.777Z" fill="#ffffff" data-original="#000000"></path></g></svg>