<svg xmlns="http://www.w3.org/2000/svg" version="1.1" xmlns:xlink="http://www.w3.org/1999/xlink" xmlns:svgjs="http://svgjs.com/svgjs" width="512" height="512" x="0" y="0" viewBox="0 0 24 24" style="enable-background:new 0 0 512 512" xml:space="preserve" class=""><g><path d="M23 16a1 1 0 0 0-1 1v2a3 3 0 0 1-3 3h-2a1 1 0 0 0 0 2h2a5.006 5.006 0 0 0 5-5v-2a1 1 0 0 0-1-1ZM7 0H5a5.006 5.006 0 0 0-5 5v2a1 1 0 0 0 2 0V5a3 3 0 0 1 3-3h2a1 1 0 0 0 0-2ZM7 22H5a3 3 0 0 1-3-3v-2a1 1 0 0 0-2 0v2a5.006 5.006 0 0 0 5 5h2a1 1 0 0 0 0-2ZM19 0h-2a1 1 0 0 0 0 2h2a3 3 0 0 1 3 3v2a1 1 0 0 0 2 0V5a5.006 5.006 0 0 0-5-5Z" fill="#ffffff" data-original="#000000"></path></g></svg>